# xmcd
#
# Track frame offsets: 
#        150
#        8977
#        22722
#        40934
#        54397
#        71758
#        87394
#        101745
#        114487
#        127413
#        138706
#        150871
#
# Disc length: 2160 seconds
#
# Revision: 0
# Processed by: cddbd v1.5.2PL0 Copyright (c) Steve Scherf et al.
# Submitted via: ExactAudioCopy v1.0b3
#
DISCID=9e086e0c
DTITLE=Astor Piazzolla - Completo en Philips y Polydor, Vol. 3
DYEAR=2012
DGENRE=ArgenFlac
TTITLE0=El choclo
TTITLE1=Ojos negros
TTITLE2=La cumparsita
TTITLE3=La cachila
TTITLE4=La maleva
TTITLE5=Mi noche triste
TTITLE6=Sentimiento gaucho
TTITLE7=Nunca tuvo novio
TTITLE8=Entre sueños
TTITLE9=Quejas de bandoneón
TTITLE10=Alma de bohemio
TTITLE11=A media luz
EXTD=
EXTT0=
EXTT1=
EXTT2=
EXTT3=
EXTT4=
EXTT5=
EXTT6=
EXTT7=
EXTT8=
EXTT9=
EXTT10=
EXTT11=
PLAYORDER=
